
<?xml version="1.0" standalone="no"?><!DOCTYPE svg PUBLIC "-//W3C//DTD SVG 1.1//EN" "http://www.w3.org/Graphics/SVG/1.1/DTD/svg11.dtd"><svg t="1548662669579" class="icon" style="" viewBox="0 0 1024 1024" version="1.1" xmlns="http://www.w3.org/2000/svg" p-id="1798" id="mx_n_1548662669580" xmlns:xlink="http://www.w3.org/1999/xlink" width="200" height="200"><defs><style type="text/css"></style></defs><path d="M0 0h1024v1024H0z" fill="#FFFFFF" p-id="1799" data-spm-anchor-id="a313x.7781069.0.i6" class=""></path><path d="M80.02 647.735l145.282-179.241c12.531-15.412 33.076-19.562 49.874-11.495l78.795 37.852 127.127-178.012c14.599-20.472 42.068-23.325 60.867-7.517l121.082 98.572L943.98 12v149.533L705.73 496.226c-0.115 0.163-0.846 1.013-0.99 1.203-14.31 19.072-40.772 22.457-59.088 7.56l-122.646-99.844-120.62 168.906c-11.331 17.646-33.604 24.605-52.709 15.438l-80.69-38.771-141.721 174.851H80.02v-77.834z" fill="" p-id="1800"></path><path d="M81.892 809.652H284.24V1012H81.892zM413.488 633.443h202.348V1012H413.488zM741.632 513.128H943.98V1012H741.632z" fill="#EFB818" p-id="1801"></path></svg>